<?xml version="1.0" standalone="no"?>
<!DOCTYPE svg PUBLIC "-//W3C//DTD SVG 20010904//EN"
 "http://www.w3.org/TR/2001/REC-SVG-20010904/DTD/svg10.dtd">
<svg version="1.0" xmlns="http://www.w3.org/2000/svg"
 width="1200.000000pt" height="1200.000000pt" viewBox="0 0 1200.000000 1200.000000"
 preserveAspectRatio="xMidYMid meet">
<metadata>
Created by potrace 1.14, written by Peter Selinger 2001-2017
</metadata>
<g transform="translate(0.000000,1200.000000) scale(0.100000,-0.100000)"
fill="#000000" stroke="none">
<path d="M5678 9719 c-773 -60 -1446 -615 -1657 -1367 -53 -187 -65 -278 -65
-492 -1 -107 3 -220 7 -251 l8 -57 132 -4 c104 -4 144 -9 189 -27 101 -39 178
-117 221 -224 20 -49 22 -72 25 -440 l3 -388 77 -65 c104 -89 255 -188 382
-251 l105 -52 5 725 5 724 350 241 c193 133 356 244 362 246 9 4 656 -430 721
-482 2 -2 5 -458 7 -1014 l4 -1011 -135 0 -134 0 0 -295 0 -295 -727 -2 -727
-3 -163 -275 c-89 -151 -163 -278 -163 -283 0 -4 325 -6 722 -5 l723 3 165
279 165 279 3 -708 c2 -560 0 -710 -10 -717 -7 -4 533 -8 1201 -8 l1214 0 -6
49 c-11 92 -75 179 -165 223 -44 22 -61 23 -269 26 l-223 4 0 864 0 864 -60 0
-60 0 -2 1011 -3 1012 -96 61 -97 61 5 105 c25 491 -186 1026 -545 1387 -395
396 -932 595 -1494 552z"/>
<path d="M5472 7240 c-18 -11 -41 -34 -52 -52 -18 -31 -20 -51 -20 -270 l0
-238 145 0 145 0 0 238 c0 219 -2 239 -20 270 -27 43 -76 72 -125 72 -22 0
-54 -9 -73 -20z"/>
<path d="M6052 7240 c-18 -11 -41 -34 -52 -52 -18 -31 -20 -51 -20 -270 l0
-238 145 0 145 0 0 233 c0 201 -2 237 -18 267 -37 74 -131 102 -200 60z"/>
<path d="M5400 6105 l0 -295 145 0 145 0 0 295 0 295 -145 0 -145 0 0 -295z"/>
<path d="M5980 6105 l0 -295 145 0 145 0 0 295 0 295 -145 0 -145 0 0 -295z"/>
<path d="M5400 3790 l0 -290 145 0 145 0 0 290 0 290 -145 0 -145 0 0 -290z"/>
<path d="M4183 3786 c-54 -17 -107 -51 -133 -83 -16 -21 -20 -41 -20 -109 0
-70 -3 -83 -17 -87 -10 -3 174 -5 410 -6 l428 -1 -3 148 -3 147 -310 2 c-233
1 -320 -1 -352 -11z"/>
</g>
</svg>
